# xmcd CD database file
#
# Track frame offsets:
#	182
#	28632
#	58695
#	90532
#	107117
#	146812
#	182267
#	224657
#
# Disc length: 3434 seconds
#
# Revision: 0
# Processed by: cddbd v1.5.1PL0 Copyright (c) Steve Scherf et al.
# Submitted via: CDex 1.51
#
DISCID=700d6808
DTITLE=Ray Charles and Dizzy Gillespie - Ray Charles meets Dizzy Gillespie
DYEAR=1978
DGENRE=Jazz
TTITLE0=Blues In F
TTITLE1=How Can You Get In (When You Get Out)
TTITLE2=Georgia On My Mind
TTITLE3=Hallelujah I Love Her So
TTITLE4=Stormy Monday
TTITLE5=Salt Peanuts
TTITLE6=God Bless The Child
TTITLE7=Medley
EXTD=YEAR: 1978
EXTT0=
EXTT1=
EXTT2=
EXTT3=
EXTT4=
EXTT5=
EXTT6=
EXTT7=
PLAYORDER=
